<mxfile host="app.diagrams.net" modified="2024-04-28T12:29:44.988Z" agent="Mozilla/5.0 (Windows NT 10.0; Win64; x64) AppleWebKit/537.36 (KHTML, like Gecko) Chrome/124.0.0.0 Safari/537.36" etag="GpuxT2Kqr2BzzoH6P3da" version="24.2.8" type="device">
  <diagram name="Page-1" id="gascdngBFn1PkuVFaGjD">
    <mxGraphModel dx="1034" dy="458" grid="1" gridSize="10" guides="1" tooltips="1" connect="1" arrows="1" fold="1" page="1" pageScale="1" pageWidth="850" pageHeight="1100" math="0" shadow="0">
      <root>
        <mxCell id="0" />
        <mxCell id="1" parent="0" />
        <mxCell id="9fNpanfSCzcCTY3AnMqd-3" value="" style="edgeStyle=orthogonalEdgeStyle;rounded=0;orthogonalLoop=1;jettySize=auto;html=1;" parent="1" source="9fNpanfSCzcCTY3AnMqd-1" target="9fNpanfSCzcCTY3AnMqd-2" edge="1">
          <mxGeometry relative="1" as="geometry" />
        </mxCell>
        <mxCell id="9fNpanfSCzcCTY3AnMqd-9" value="Basic Details" style="edgeLabel;html=1;align=center;verticalAlign=middle;resizable=0;points=[];" parent="9fNpanfSCzcCTY3AnMqd-3" vertex="1" connectable="0">
          <mxGeometry x="-0.0397" y="1" relative="1" as="geometry">
            <mxPoint y="-14" as="offset" />
          </mxGeometry>
        </mxCell>
        <mxCell id="9fNpanfSCzcCTY3AnMqd-1" value="Student" style="html=1;dashed=0;whiteSpace=wrap;" parent="1" vertex="1">
          <mxGeometry x="110" y="180" width="100" height="50" as="geometry" />
        </mxCell>
        <mxCell id="9fNpanfSCzcCTY3AnMqd-5" value="" style="edgeStyle=orthogonalEdgeStyle;rounded=0;orthogonalLoop=1;jettySize=auto;html=1;" parent="1" source="9fNpanfSCzcCTY3AnMqd-2" target="9fNpanfSCzcCTY3AnMqd-4" edge="1">
          <mxGeometry relative="1" as="geometry" />
        </mxCell>
        <mxCell id="kFw49Fil3RfXOhh0qk1X-1" value="Successfully added&lt;div&gt;basic details&lt;/div&gt;" style="edgeLabel;html=1;align=center;verticalAlign=middle;resizable=0;points=[];" parent="9fNpanfSCzcCTY3AnMqd-5" vertex="1" connectable="0">
          <mxGeometry x="-0.1" relative="1" as="geometry">
            <mxPoint x="4" y="-25" as="offset" />
          </mxGeometry>
        </mxCell>
        <mxCell id="9fNpanfSCzcCTY3AnMqd-15" style="edgeStyle=orthogonalEdgeStyle;rounded=0;orthogonalLoop=1;jettySize=auto;html=1;exitX=0.5;exitY=0;exitDx=0;exitDy=0;entryX=0;entryY=0.25;entryDx=0;entryDy=0;" parent="1" source="9fNpanfSCzcCTY3AnMqd-2" target="9fNpanfSCzcCTY3AnMqd-14" edge="1">
          <mxGeometry relative="1" as="geometry" />
        </mxCell>
        <mxCell id="9fNpanfSCzcCTY3AnMqd-2" value="&lt;div&gt;1.1&lt;/div&gt;Add Basic&lt;br&gt;details" style="ellipse;whiteSpace=wrap;html=1;dashed=0;" parent="1" vertex="1">
          <mxGeometry x="340" y="165" width="80" height="80" as="geometry" />
        </mxCell>
        <mxCell id="9fNpanfSCzcCTY3AnMqd-7" value="" style="edgeStyle=orthogonalEdgeStyle;rounded=0;orthogonalLoop=1;jettySize=auto;html=1;" parent="1" source="9fNpanfSCzcCTY3AnMqd-4" target="9fNpanfSCzcCTY3AnMqd-6" edge="1">
          <mxGeometry relative="1" as="geometry" />
        </mxCell>
        <mxCell id="9fNpanfSCzcCTY3AnMqd-12" value="Password" style="edgeLabel;html=1;align=center;verticalAlign=middle;resizable=0;points=[];" parent="9fNpanfSCzcCTY3AnMqd-7" vertex="1" connectable="0">
          <mxGeometry x="-0.0316" y="6" relative="1" as="geometry">
            <mxPoint y="-9" as="offset" />
          </mxGeometry>
        </mxCell>
        <mxCell id="9fNpanfSCzcCTY3AnMqd-4" value="&lt;div&gt;1.2&lt;/div&gt;Verify&lt;br&gt;Details" style="ellipse;whiteSpace=wrap;html=1;dashed=0;" parent="1" vertex="1">
          <mxGeometry x="500" y="165" width="80" height="80" as="geometry" />
        </mxCell>
        <mxCell id="9fNpanfSCzcCTY3AnMqd-8" style="edgeStyle=orthogonalEdgeStyle;rounded=0;orthogonalLoop=1;jettySize=auto;html=1;exitX=0.5;exitY=1;exitDx=0;exitDy=0;" parent="1" source="9fNpanfSCzcCTY3AnMqd-6" target="9fNpanfSCzcCTY3AnMqd-1" edge="1">
          <mxGeometry relative="1" as="geometry">
            <Array as="points">
              <mxPoint x="700" y="265" />
              <mxPoint x="170" y="265" />
            </Array>
          </mxGeometry>
        </mxCell>
        <mxCell id="9fNpanfSCzcCTY3AnMqd-13" value="Account Created" style="edgeLabel;html=1;align=center;verticalAlign=middle;resizable=0;points=[];" parent="9fNpanfSCzcCTY3AnMqd-8" vertex="1" connectable="0">
          <mxGeometry x="-0.3228" y="2" relative="1" as="geometry">
            <mxPoint x="-67" y="13" as="offset" />
          </mxGeometry>
        </mxCell>
        <mxCell id="9fNpanfSCzcCTY3AnMqd-17" style="edgeStyle=orthogonalEdgeStyle;rounded=0;orthogonalLoop=1;jettySize=auto;html=1;exitX=0.5;exitY=0;exitDx=0;exitDy=0;entryX=1;entryY=0.25;entryDx=0;entryDy=0;" parent="1" source="9fNpanfSCzcCTY3AnMqd-6" target="9fNpanfSCzcCTY3AnMqd-14" edge="1">
          <mxGeometry relative="1" as="geometry" />
        </mxCell>
        <mxCell id="9fNpanfSCzcCTY3AnMqd-6" value="&lt;div&gt;1.3&lt;/div&gt;Add&lt;br&gt;Password" style="ellipse;whiteSpace=wrap;html=1;dashed=0;" parent="1" vertex="1">
          <mxGeometry x="660" y="165" width="80" height="80" as="geometry" />
        </mxCell>
        <mxCell id="9fNpanfSCzcCTY3AnMqd-14" value="Students" style="html=1;dashed=0;whiteSpace=wrap;shape=partialRectangle;right=0;left=0;" parent="1" vertex="1">
          <mxGeometry x="490" y="60" width="100" height="30" as="geometry" />
        </mxCell>
        <mxCell id="9fNpanfSCzcCTY3AnMqd-21" value="" style="edgeStyle=orthogonalEdgeStyle;rounded=0;orthogonalLoop=1;jettySize=auto;html=1;" parent="1" source="9fNpanfSCzcCTY3AnMqd-19" target="9fNpanfSCzcCTY3AnMqd-20" edge="1">
          <mxGeometry relative="1" as="geometry" />
        </mxCell>
        <mxCell id="9fNpanfSCzcCTY3AnMqd-27" value="Select Job" style="edgeLabel;html=1;align=center;verticalAlign=middle;resizable=0;points=[];" parent="9fNpanfSCzcCTY3AnMqd-21" vertex="1" connectable="0">
          <mxGeometry x="0.1016" y="-1" relative="1" as="geometry">
            <mxPoint as="offset" />
          </mxGeometry>
        </mxCell>
        <mxCell id="9fNpanfSCzcCTY3AnMqd-19" value="Students" style="html=1;dashed=0;whiteSpace=wrap;" parent="1" vertex="1">
          <mxGeometry x="130" y="490" width="100" height="50" as="geometry" />
        </mxCell>
        <mxCell id="9fNpanfSCzcCTY3AnMqd-23" value="" style="edgeStyle=orthogonalEdgeStyle;rounded=0;orthogonalLoop=1;jettySize=auto;html=1;" parent="1" source="9fNpanfSCzcCTY3AnMqd-20" target="9fNpanfSCzcCTY3AnMqd-22" edge="1">
          <mxGeometry relative="1" as="geometry" />
        </mxCell>
        <mxCell id="9fNpanfSCzcCTY3AnMqd-28" value="Self Declaration" style="edgeLabel;html=1;align=center;verticalAlign=middle;resizable=0;points=[];" parent="9fNpanfSCzcCTY3AnMqd-23" vertex="1" connectable="0">
          <mxGeometry x="-0.0107" y="5" relative="1" as="geometry">
            <mxPoint as="offset" />
          </mxGeometry>
        </mxCell>
        <mxCell id="9fNpanfSCzcCTY3AnMqd-20" value="&lt;div&gt;2.1&lt;/div&gt;Jobs&lt;br&gt;Selected" style="ellipse;whiteSpace=wrap;html=1;dashed=0;" parent="1" vertex="1">
          <mxGeometry x="320" y="475" width="80" height="80" as="geometry" />
        </mxCell>
        <mxCell id="9fNpanfSCzcCTY3AnMqd-25" value="" style="edgeStyle=orthogonalEdgeStyle;rounded=0;orthogonalLoop=1;jettySize=auto;html=1;" parent="1" source="9fNpanfSCzcCTY3AnMqd-22" target="9fNpanfSCzcCTY3AnMqd-24" edge="1">
          <mxGeometry relative="1" as="geometry" />
        </mxCell>
        <mxCell id="9fNpanfSCzcCTY3AnMqd-29" value="Resume" style="edgeLabel;html=1;align=center;verticalAlign=middle;resizable=0;points=[];" parent="9fNpanfSCzcCTY3AnMqd-25" vertex="1" connectable="0">
          <mxGeometry x="0.1679" y="1" relative="1" as="geometry">
            <mxPoint as="offset" />
          </mxGeometry>
        </mxCell>
        <mxCell id="9fNpanfSCzcCTY3AnMqd-32" style="edgeStyle=orthogonalEdgeStyle;rounded=0;orthogonalLoop=1;jettySize=auto;html=1;exitX=0.5;exitY=0;exitDx=0;exitDy=0;entryX=0.5;entryY=1;entryDx=0;entryDy=0;" parent="1" source="9fNpanfSCzcCTY3AnMqd-22" target="9fNpanfSCzcCTY3AnMqd-31" edge="1">
          <mxGeometry relative="1" as="geometry" />
        </mxCell>
        <mxCell id="9fNpanfSCzcCTY3AnMqd-22" value="&lt;div&gt;2.2&lt;/div&gt;Upload&lt;br&gt;Self Declaration" style="ellipse;whiteSpace=wrap;html=1;dashed=0;" parent="1" vertex="1">
          <mxGeometry x="480" y="475" width="80" height="80" as="geometry" />
        </mxCell>
        <mxCell id="9fNpanfSCzcCTY3AnMqd-26" style="edgeStyle=orthogonalEdgeStyle;rounded=0;orthogonalLoop=1;jettySize=auto;html=1;exitX=0.5;exitY=1;exitDx=0;exitDy=0;entryX=0.25;entryY=1;entryDx=0;entryDy=0;" parent="1" source="9fNpanfSCzcCTY3AnMqd-24" target="9fNpanfSCzcCTY3AnMqd-19" edge="1">
          <mxGeometry relative="1" as="geometry">
            <Array as="points">
              <mxPoint x="680" y="610" />
              <mxPoint x="155" y="610" />
            </Array>
          </mxGeometry>
        </mxCell>
        <mxCell id="9fNpanfSCzcCTY3AnMqd-30" value="Job Application Successful" style="edgeLabel;html=1;align=center;verticalAlign=middle;resizable=0;points=[];" parent="9fNpanfSCzcCTY3AnMqd-26" vertex="1" connectable="0">
          <mxGeometry x="-0.0119" relative="1" as="geometry">
            <mxPoint as="offset" />
          </mxGeometry>
        </mxCell>
        <mxCell id="9fNpanfSCzcCTY3AnMqd-33" style="edgeStyle=orthogonalEdgeStyle;rounded=0;orthogonalLoop=1;jettySize=auto;html=1;exitX=0.5;exitY=0;exitDx=0;exitDy=0;entryX=1;entryY=0.25;entryDx=0;entryDy=0;" parent="1" source="9fNpanfSCzcCTY3AnMqd-24" target="9fNpanfSCzcCTY3AnMqd-31" edge="1">
          <mxGeometry relative="1" as="geometry" />
        </mxCell>
        <mxCell id="9fNpanfSCzcCTY3AnMqd-24" value="&lt;div&gt;2.3&lt;/div&gt;Upload Resume" style="ellipse;whiteSpace=wrap;html=1;dashed=0;" parent="1" vertex="1">
          <mxGeometry x="640" y="475" width="80" height="80" as="geometry" />
        </mxCell>
        <mxCell id="9fNpanfSCzcCTY3AnMqd-31" value="Application" style="html=1;dashed=0;whiteSpace=wrap;shape=partialRectangle;right=0;left=0;" parent="1" vertex="1">
          <mxGeometry x="470" y="420" width="100" height="30" as="geometry" />
        </mxCell>
        <mxCell id="9fNpanfSCzcCTY3AnMqd-36" value="" style="edgeStyle=orthogonalEdgeStyle;rounded=0;orthogonalLoop=1;jettySize=auto;html=1;" parent="1" source="9fNpanfSCzcCTY3AnMqd-34" target="9fNpanfSCzcCTY3AnMqd-35" edge="1">
          <mxGeometry relative="1" as="geometry" />
        </mxCell>
        <mxCell id="9fNpanfSCzcCTY3AnMqd-40" value="Offer Letter" style="edgeLabel;html=1;align=center;verticalAlign=middle;resizable=0;points=[];" parent="9fNpanfSCzcCTY3AnMqd-36" vertex="1" connectable="0">
          <mxGeometry x="-0.0807" y="2" relative="1" as="geometry">
            <mxPoint as="offset" />
          </mxGeometry>
        </mxCell>
        <mxCell id="9fNpanfSCzcCTY3AnMqd-34" value="Student" style="html=1;dashed=0;whiteSpace=wrap;" parent="1" vertex="1">
          <mxGeometry x="130" y="845" width="100" height="50" as="geometry" />
        </mxCell>
        <mxCell id="9fNpanfSCzcCTY3AnMqd-38" value="" style="edgeStyle=orthogonalEdgeStyle;rounded=0;orthogonalLoop=1;jettySize=auto;html=1;" parent="1" source="9fNpanfSCzcCTY3AnMqd-35" target="9fNpanfSCzcCTY3AnMqd-37" edge="1">
          <mxGeometry relative="1" as="geometry" />
        </mxCell>
        <mxCell id="9fNpanfSCzcCTY3AnMqd-48" style="edgeStyle=orthogonalEdgeStyle;rounded=0;orthogonalLoop=1;jettySize=auto;html=1;exitX=0.5;exitY=0;exitDx=0;exitDy=0;entryX=0.5;entryY=1;entryDx=0;entryDy=0;" parent="1" source="9fNpanfSCzcCTY3AnMqd-35" target="9fNpanfSCzcCTY3AnMqd-44" edge="1">
          <mxGeometry relative="1" as="geometry" />
        </mxCell>
        <mxCell id="9fNpanfSCzcCTY3AnMqd-35" value="&lt;div&gt;3.1&lt;/div&gt;Upload&lt;br&gt;Offer&amp;nbsp;&lt;br&gt;letter" style="ellipse;whiteSpace=wrap;html=1;dashed=0;" parent="1" vertex="1">
          <mxGeometry x="400" y="830" width="80" height="80" as="geometry" />
        </mxCell>
        <mxCell id="9fNpanfSCzcCTY3AnMqd-39" style="edgeStyle=orthogonalEdgeStyle;rounded=0;orthogonalLoop=1;jettySize=auto;html=1;exitX=0.5;exitY=1;exitDx=0;exitDy=0;entryX=0.25;entryY=1;entryDx=0;entryDy=0;" parent="1" source="9fNpanfSCzcCTY3AnMqd-37" target="9fNpanfSCzcCTY3AnMqd-34" edge="1">
          <mxGeometry relative="1" as="geometry" />
        </mxCell>
        <mxCell id="9fNpanfSCzcCTY3AnMqd-42" value="Placement Notification" style="edgeLabel;html=1;align=center;verticalAlign=middle;resizable=0;points=[];" parent="9fNpanfSCzcCTY3AnMqd-39" vertex="1" connectable="0">
          <mxGeometry x="0.0557" y="-2" relative="1" as="geometry">
            <mxPoint x="16" y="22" as="offset" />
          </mxGeometry>
        </mxCell>
        <mxCell id="9fNpanfSCzcCTY3AnMqd-37" value="&lt;div&gt;3.2&lt;/div&gt;Co-ordinator&lt;br&gt;approval" style="ellipse;whiteSpace=wrap;html=1;dashed=0;" parent="1" vertex="1">
          <mxGeometry x="640" y="830" width="80" height="80" as="geometry" />
        </mxCell>
        <mxCell id="9fNpanfSCzcCTY3AnMqd-47" style="edgeStyle=orthogonalEdgeStyle;rounded=0;orthogonalLoop=1;jettySize=auto;html=1;exitX=1;exitY=0.5;exitDx=0;exitDy=0;entryX=0;entryY=0;entryDx=0;entryDy=0;" parent="1" source="9fNpanfSCzcCTY3AnMqd-44" target="9fNpanfSCzcCTY3AnMqd-37" edge="1">
          <mxGeometry relative="1" as="geometry">
            <Array as="points">
              <mxPoint x="560" y="785" />
              <mxPoint x="560" y="820" />
              <mxPoint x="652" y="820" />
            </Array>
          </mxGeometry>
        </mxCell>
        <mxCell id="9fNpanfSCzcCTY3AnMqd-44" value="Application" style="html=1;dashed=0;whiteSpace=wrap;shape=partialRectangle;right=0;left=0;" parent="1" vertex="1">
          <mxGeometry x="390" y="770" width="100" height="30" as="geometry" />
        </mxCell>
        <mxCell id="9fNpanfSCzcCTY3AnMqd-46" style="edgeStyle=orthogonalEdgeStyle;rounded=0;orthogonalLoop=1;jettySize=auto;html=1;exitX=0.5;exitY=1;exitDx=0;exitDy=0;" parent="1" source="9fNpanfSCzcCTY3AnMqd-45" target="9fNpanfSCzcCTY3AnMqd-37" edge="1">
          <mxGeometry relative="1" as="geometry" />
        </mxCell>
        <mxCell id="9fNpanfSCzcCTY3AnMqd-45" value="List Of Selected Students" style="html=1;dashed=0;whiteSpace=wrap;shape=partialRectangle;right=0;left=0;" parent="1" vertex="1">
          <mxGeometry x="630" y="770" width="100" height="30" as="geometry" />
        </mxCell>
      </root>
    </mxGraphModel>
  </diagram>
</mxfile>
